:SAMPLES-PER-SECOND 30
:FULLY-SPECIFIED
:DEGREES
145
root  -2.38329 37.4675 -15.1278 -9.21332 44.2175 -5.9383
RightUpLeg  -26.9979 -5.92917 6.11954
RightLeg  27.4569 -3.54323 -2.21943
RightFoot  5.00588 0.990322 -6.67674
RightToes  0.00048216 0.542163 -0.142577
Spine  13.1948 -3.90998 8.76667
Spine1  9.55815 -2.92645 -0.130078
HEad  -4.89212 14.5584 -9.85344
LeftShoulder1  9.09583 -13.673 -46.1887
LeftArm  -10.2383 16.1479 -22.5847
LeftForeArm  84.6588 -79.1805 -98.2835
LeftHand  -0.25398 0.0180481 5.50724
RightShoulder  4.59857 8.47464 32.4496
RightArm  -16.905 -28.7532 22.8887
RightForeArm  70.3279 72.651 135.072
RightHand  1.5102 -18.2651 -14.1625
LeftUpLeg  20.8761 6.80327 6.01053
LeftLeg  35.0106 -3.53282 -2.21699
LeftFoot  -4.44852 0.678898 -11.3236
LeftToes  1.06244e-005 4.65856e-005 -8.18505e-006
146
root  -1.18739 37.4996 -13.8949 -9.86219 46.2324 -7.92855
RightUpLeg  -26.8649 -6.82733 6.99236
RightLeg  31.4543 -4.80081 -3.41029
RightFoot  0.19374 0.775638 -7.60595
RightToes  0.00048216 0.542163 -0.142577
Spine  13.243 -4.46971 10.5097
Spine1  9.72618 -3.20066 0.623865
HEad  -4.65287 14.1382 -9.56714
LeftShoulder1  9.17241 -13.6298 -46.7088
LeftArm  -10.231 16.6941 -22.1409
LeftForeArm  81.3376 -79.2477 -94.9938
LeftHand  -0.25398 0.0180481 5.50724
RightShoulder  4.57024 8.40967 32.4205
RightArm  -16.0023 -28.5521 22.6866
RightForeArm  68.507 73.1006 133.454
RightHand  1.57478 -18.4099 -14.5624
LeftUpLeg  11.52 3.86039 6.27267
LeftLeg  48.3962 -0.486073 -0.144686
LeftFoot  10.557 1.96331 -10.5
LeftToes  1.06244e-005 4.65856e-005 -8.18505e-006
147
root  -0.0492177 37.55 -12.7359 -10.8558 48.3419 -10.0127
RightUpLeg  -25.816 -7.96534 7.79127
RightLeg  34.0263 -5.42038 -4.1895
RightFoot  -3.85837 0.426847 -6.85782
RightToes  0.00048216 0.542163 -0.142577
Spine  13.0468 -4.76604 12.7445
Spine1  10.4354 -2.9702 0.782932
HEad  -4.44109 12.6754 -8.92889
LeftShoulder1  9.21852 -13.6673 -46.8445
LeftArm  -9.6271 16.3159 -21.9444
LeftForeArm  76.0444 -79.2904 -89.6075
LeftHand  -0.25398 0.0180481 5.50724
RightShoulder  4.51 8.29957 32.2679
RightArm  -15.763 -28.9187 22.8609
RightForeArm  67.7797 73.302 132.692
RightHand  1.54051 -17.9193 -14.8011
LeftUpLeg  2.01791 1.50163 6.88321
LeftLeg  59.5706 0.827047 1.99608
LeftFoot  17.5712 2.27159 -9.19724
LeftToes  1.06244e-005 4.65856e-005 -8.18505e-006
148
root  1.19896 37.9189 -11.4391 -11.1751 49.613 -10.0692
RightUpLeg  -22.2313 -9.08591 7.18652
RightLeg  34.0953 -5.49121 -4.25764
RightFoot  -6.68046 0.170643 -5.33315
RightToes  0.00048216 0.542163 -0.142577
Spine  13.1252 -4.34986 13.1179
Spine1  10.799 -2.32483 0.432915
HEad  -3.76823 11.1724 -8.39008
LeftShoulder1  9.23791 -13.7623 -46.6809
LeftArm  -8.92234 16.1843 -21.8332
LeftForeArm  71.1681 -79.2511 -84.5626
LeftHand  -0.25398 0.0180481 5.50724
RightShoulder  4.50195 8.32368 32.1217
RightArm  -15.4932 -29.0868 23.1185
RightForeArm  66.3442 73.6387 131.334
RightHand  1.48623 -17.209 -15.1346
LeftUpLeg  -5.28761 1.13284 6.79424
LeftLeg  66.1597 0.70374 2.43185
LeftFoot  15.7956 1.77086 -7.70894
LeftToes  1.06244e-005 4.65856e-005 -8.18505e-006
149
root  2.4977 38.4229 -10.0742 -10.5956 50.4511 -8.65304
RightUpLeg  -17.5604 -10.9478 5.69664
RightLeg  32.7051 -4.96331 -3.69296
RightFoot  -8.95803 0.0392957 -4.90217
RightToes  0.00048216 0.542163 -0.142577
Spine  13.3995 -3.65253 11.8482
Spine1  10.6095 -1.77089 0.452317
HEad  -2.20335 10.4093 -8.20636
LeftShoulder1  9.21885 -13.8029 -46.4699
LeftArm  -8.6628 17.0465 -21.649
LeftForeArm  68.872 -79.2034 -82.1578
LeftHand  -0.25398 0.0180481 5.50724
RightShoulder  4.5155 8.39799 31.9973
RightArm  -14.5672 -28.5157 23.1942
RightForeArm  63.1805 74.3052 128.359
RightHand  1.5216 -17.364 -15.2744
LeftUpLeg  -11.0819 1.95213 5.82743
LeftLeg  67.811 0.642573 2.50794
LeftFoot  10.9753 1.13651 -6.10158
LeftToes  1.06244e-005 4.65856e-005 -8.18505e-006
150
root  3.83647 38.8487 -8.71435 -9.62871 51.2298 -7.51014
RightUpLeg  -13.1817 -13.5356 4.35825
RightLeg  30.62 -3.64383 -2.60175
RightFoot  -11.0273 -0.0595269 -5.19091
RightToes  0.00048216 0.542163 -0.142577
Spine  12.8061 -2.93725 10.8029
Spine1  10.3735 -1.31094 0.505531
HEad  -0.223366 10.0492 -8.26966
LeftShoulder1  9.16958 -13.7572 -46.3404
LeftArm  -8.8013 18.4718 -21.3724
LeftForeArm  68.9455 -79.2035 -82.2984
LeftHand  -0.25398 0.0180481 5.50724
RightShoulder  4.49398 8.37155 31.9002
RightArm  -13.2538 -27.663 23.1607
RightForeArm  59.6679 74.9901 124.824
RightHand  1.5971 -18.046 -15.151
LeftUpLeg  -16.6137 2.95438 4.7302
LeftLeg  65.7638 1.26532 3.75203
LeftFoot  7.52544 0.616869 -3.9844
LeftToes  1.06244e-005 4.65856e-005 -8.18505e-006
